<?xml version="1.0" encoding="UTF-8" standalone="no"?>
<!DOCTYPE svg PUBLIC "-//W3C//DTD SVG 1.1//EN" "http://www.w3.org/Graphics/SVG/1.1/DTD/svg11.dtd">
<!-- Generated by Microsoft Visio, SVG Export ClientDiagram.svg Page-1 -->
<svg xmlns="http://www.w3.org/2000/svg" xmlns:xlink="http://www.w3.org/1999/xlink" xmlns:ev="http://www.w3.org/2001/xml-events"
		xmlns:v="http://schemas.microsoft.com/visio/2003/SVGExtensions/" width="7.82286in" height="9.6454in"
		viewBox="0 0 563.246 694.469" xml:space="preserve" color-interpolation-filters="sRGB" class="st23">
	<v:documentProperties v:langID="1033" v:metric="true" v:viewMarkup="false"/>

	<style type="text/css">
	<![CDATA[
		.st1 {fill:none;stroke:none;stroke-width:0.25}
		.st2 {fill:#5b9bd5;font-family:Calibri;font-size:1.5em}
		.st3 {visibility:visible}
		.st4 {fill:#5b9bd5;fill-opacity:0.22;filter:url(#filter_2);stroke:#5b9bd5;stroke-opacity:0.22}
		.st5 {fill:#9bc2e6;stroke:#c8c8c8;stroke-width:0.25}
		.st6 {fill:#5b9bd5;stroke:#c8c8c8;stroke-width:0.25}
		.st7 {fill:#feffff;font-family:Calibri;font-size:0.666664em}
		.st8 {marker-end:url(#mrkr4-26);stroke:#5b9bd5;stroke-linecap:round;stroke-linejoin:round;stroke-width:1}
		.st9 {fill:#5b9bd5;fill-opacity:1;stroke:#5b9bd5;stroke-opacity:1;stroke-width:0.28409090909091}
		.st10 {marker-end:url(#mrkr4-59);stroke:#5b9bd5;stroke-linecap:round;stroke-linejoin:round;stroke-width:1}
		.st11 {font-size:1em}
		.st12 {marker-end:url(#mrkr4-136);stroke:#5b9bd5;stroke-linecap:round;stroke-linejoin:round;stroke-width:1}
		.st13 {fill:#ed7d31;fill-opacity:0.25;filter:url(#filter_2);stroke:#ed7d31;stroke-opacity:0.25}
		.st14 {fill:#d06d29;stroke:#ae5a21;stroke-width:0.75}
		.st15 {marker-end:url(#mrkr4-150);stroke:#ed7d31;stroke-dasharray:3,3;stroke-linecap:round;stroke-linejoin:round;stroke-width:1}
		.st16 {fill:#ed7d31;fill-opacity:1;stroke:#ed7d31;stroke-opacity:1;stroke-width:0.28409090909091}
		.st17 {fill:#ed7d31;fill-opacity:0.22;filter:url(#filter_2);stroke:#ed7d31;stroke-opacity:0.22}
		.st18 {fill:#ed7d31;stroke:#c8c8c8;stroke-width:0.25}
		.st19 {marker-end:url(#mrkr4-169);stroke:#ed7d31;stroke-dasharray:3,3;stroke-linecap:round;stroke-linejoin:round;stroke-width:1}
		.st20 {fill:#ffffff;stroke:none;stroke-linecap:butt;stroke-width:7.2}
		.st21 {fill:#d16d2a;font-family:Calibri;font-size:0.666664em}
		.st22 {marker-end:url(#mrkr4-150);stroke:#ed7d31;stroke-linecap:round;stroke-linejoin:round;stroke-width:1}
		.st23 {fill:none;fill-rule:evenodd;font-size:12px;overflow:visible;stroke-linecap:square;stroke-miterlimit:3}
	]]>
	</style>

	<defs id="Markers">
		<g id="lend4">
			<path d="M 2 1 L 0 0 L 2 -1 L 2 1 " style="stroke:none"/>
		</g>
		<marker id="mrkr4-26" class="st9" v:arrowType="4" v:arrowSize="2" v:setback="7.04" refX="-7.04" orient="auto"
				markerUnits="strokeWidth" overflow="visible">
			<use xlink:href="#lend4" transform="scale(-3.52,-3.52) "/>
		</marker>
		<marker id="mrkr4-59" class="st9" v:arrowType="4" v:arrowSize="2" v:setback="6.68" refX="-6.68" orient="auto"
				markerUnits="strokeWidth" overflow="visible">
			<use xlink:href="#lend4" transform="scale(-3.52,-3.52) "/>
		</marker>
		<marker id="mrkr4-136" class="st9" v:arrowType="4" v:arrowSize="2" v:setback="0" refX="-0" orient="auto"
				markerUnits="strokeWidth" overflow="visible">
			<use xlink:href="#lend4" transform="scale(-3.52,-3.52) "/>
		</marker>
		<marker id="mrkr4-150" class="st16" v:arrowType="4" v:arrowSize="2" v:setback="7.04" refX="-7.04" orient="auto"
				markerUnits="strokeWidth" overflow="visible">
			<use xlink:href="#lend4" transform="scale(-3.52,-3.52) "/>
		</marker>
		<marker id="mrkr4-169" class="st16" v:arrowType="4" v:arrowSize="2" v:setback="6.68" refX="-6.68" orient="auto"
				markerUnits="strokeWidth" overflow="visible">
			<use xlink:href="#lend4" transform="scale(-3.52,-3.52) "/>
		</marker>
	</defs>
	<defs id="Filters">
		<filter id="filter_2">
			<feGaussianBlur stdDeviation="2"/>
		</filter>
	</defs>
	<g v:mID="0" v:index="1" v:groupContext="foregroundPage">
		<title>Page-1</title>
		<v:pageProperties v:drawingScale="0.0393701" v:pageScale="0.0393701" v:drawingUnits="24" v:shadowOffsetX="8.50394"
				v:shadowOffsetY="-8.50394"/>
		<v:layer v:name="Flowchart" v:index="0"/>
		<v:layer v:name="Connector" v:index="1"/>
		<g id="shape1-1" v:mID="1" v:groupContext="shape" transform="translate(0.25,-641.446)">
			<title>Sheet.1</title>
			<desc>Client</desc>
			<v:textBlock v:margins="rect(1,1,1,1)" v:tabSpace="42.5197"/>
			<v:textRect cx="35.4331" cy="668.083" width="70.87" height="52.7727"/>
			<rect x="0" y="641.696" width="70.8661" height="52.7727" class="st1"/>
			<text x="14.28" y="673.48" class="st2" v:langID="4105"><v:paragraph v:horizAlign="1"/><v:tabList/>Client</text>		</g>
		<g id="group2-4" transform="translate(337.976,-599.131)" v:mID="2" v:groupContext="group" v:layerMember="0">
			<v:custProps>
				<v:cp v:nameU="Cost" v:lbl="Cost" v:type="7" v:format="@" v:langID="1033"/>
				<v:cp v:nameU="Duration" v:lbl="Duration" v:type="2" v:langID="1033"/>
				<v:cp v:nameU="Resources" v:lbl="Resources" v:langID="1033"/>
			</v:custProps>
			<v:userDefs>
				<v:ud v:nameU="visVersion" v:val="VT0(15):26"/>
			</v:userDefs>
			<title>Start state</title>
			<desc>Command</desc>
			<g id="shape3-5" v:mID="3" v:groupContext="shape" v:layerMember="0">
				<title>Sheet.3</title>
				<g id="shadow3-6" v:groupContext="shadow" v:shadowOffsetX="0.345598" v:shadowOffsetY="-1.97279" v:shadowType="1"
						transform="matrix(1,0,0,1,0.345598,1.97279)" class="st3">
					<path d="M0 666.12 A28.3465 28.3465 0 0 1 56.69 666.12 A28.3465 28.3465 0 1 1 0 666.12 Z" class="st4"/>
				</g>
				<path d="M0 666.12 A28.3465 28.3465 0 0 1 56.69 666.12 A28.3465 28.3465 0 1 1 0 666.12 Z" class="st5"/>
			</g>
			<g id="shape4-10" v:mID="4" v:groupContext="shape" v:layerMember="0" transform="translate(5.66929,-5.66929)">
				<title>Sheet.4</title>
				<path d="M0 671.79 A22.6772 22.6772 0 0 1 45.35 671.79 A22.6772 22.6772 0 1 1 0 671.79 Z" class="st6"/>
			</g>
			<g id="shape2-12" v:mID="2" v:groupContext="groupContent" v:layerMember="0">
				<v:textBlock v:margins="rect(4,4,4,4)" v:tabSpace="42.5197"/>
				<v:textRect cx="28.3465" cy="666.122" width="56.7" height="56.6929"/>
				<g id="shadow2-13" v:groupContext="shadow" v:shadowOffsetX="0.345598" v:shadowOffsetY="-1.97279" v:shadowType="1"
						transform="matrix(1,0,0,1,0.345598,1.97279)" class="st3"/>
				<text x="11.59" y="668.52" class="st7" v:langID="4105"><v:paragraph v:horizAlign="1"/><v:tabList/>Command</text>			</g>
		</g>
		<g id="shape5-15" v:mID="5" v:groupContext="shape" v:layerMember="0" transform="translate(337.976,-485.746)">
			<title>Data process</title>
			<desc>Connect</desc>
			<v:custProps>
				<v:cp v:nameU="Cost" v:lbl="Cost" v:type="7" v:format="@" v:langID="1033"/>
				<v:cp v:nameU="Duration" v:lbl="Duration" v:type="2" v:langID="1033"/>
				<v:cp v:nameU="Resources" v:lbl="Resources" v:langID="1033"/>
			</v:custProps>
			<v:userDefs>
				<v:ud v:nameU="visVersion" v:val="VT0(15):26"/>
			</v:userDefs>
			<v:textBlock v:margins="rect(1,1,1,1)" v:tabSpace="42.5197"/>
			<v:textRect cx="28.3465" cy="666.122" width="56.7" height="56.6929"/>
			<g id="shadow5-16" v:groupContext="shadow" v:shadowOffsetX="0.345598" v:shadowOffsetY="-1.97279" v:shadowType="1"
					transform="matrix(1,0,0,1,0.345598,1.97279)" class="st3">
				<path d="M0 666.12 A28.3465 28.3465 0 0 1 56.69 666.12 A28.3465 28.3465 0 1 1 0 666.12 Z" class="st4"/>
			</g>
			<path d="M0 666.12 A28.3465 28.3465 0 0 1 56.69 666.12 A28.3465 28.3465 0 1 1 0 666.12 Z" class="st6"/>
			<text x="14.88" y="668.52" class="st7" v:langID="4105"><v:paragraph v:horizAlign="1"/><v:tabList/>Connect</text>		</g>
		<g id="shape6-21" v:mID="6" v:groupContext="shape" v:layerMember="1" transform="translate(359.235,-599.131)">
			<title>Dynamic connector</title>
			<path d="M7.09 694.47 L7.09 744.12" class="st8"/>
		</g>
		<g id="shape7-27" v:mID="7" v:groupContext="shape" v:layerMember="0" transform="translate(502.833,-599.131)">
			<title>Data process.7</title>
			<desc>Exit</desc>
			<v:custProps>
				<v:cp v:nameU="Cost" v:lbl="Cost" v:type="7" v:format="@" v:langID="1033"/>
				<v:cp v:nameU="Duration" v:lbl="Duration" v:type="2" v:langID="1033"/>
				<v:cp v:nameU="Resources" v:lbl="Resources" v:langID="1033"/>
			</v:custProps>
			<v:userDefs>
				<v:ud v:nameU="visVersion" v:val="VT0(15):26"/>
			</v:userDefs>
			<v:textBlock v:margins="rect(1,1,1,1)" v:tabSpace="42.5197"/>
			<v:textRect cx="28.3465" cy="666.122" width="56.7" height="56.6929"/>
			<g id="shadow7-28" v:groupContext="shadow" v:shadowOffsetX="0.345598" v:shadowOffsetY="-1.97279" v:shadowType="1"
					transform="matrix(1,0,0,1,0.345598,1.97279)" class="st3">
				<path d="M0 666.12 A28.3465 28.3465 0 0 1 56.69 666.12 A28.3465 28.3465 0 1 1 0 666.12 Z" class="st4"/>
			</g>
			<path d="M0 666.12 A28.3465 28.3465 0 0 1 56.69 666.12 A28.3465 28.3465 0 1 1 0 666.12 Z" class="st6"/>
			<text x="22.4" y="668.52" class="st7" v:langID="4105"><v:paragraph v:horizAlign="1"/><v:tabList/>Exit</text>		</g>
		<g id="shape8-33" v:mID="8" v:groupContext="shape" v:layerMember="1" transform="translate(394.669,-620.391)">
			<title>Dynamic connector.8</title>
			<path d="M0 687.38 L101.12 687.38" class="st8"/>
		</g>
		<g id="shape9-38" v:mID="9" v:groupContext="shape" v:layerMember="1" transform="translate(394.669,-507.005)">
			<title>Dynamic connector.9</title>
			<path d="M0 687.38 C24.86 687.38 72.58 687.38 101.12 687.38" class="st8"/>
		</g>
		<g id="shape10-43" v:mID="10" v:groupContext="shape" v:layerMember="0" transform="translate(502.833,-485.746)">
			<title>Data process.10</title>
			<desc>Error</desc>
			<v:custProps>
				<v:cp v:nameU="Cost" v:lbl="Cost" v:type="7" v:format="@" v:langID="1033"/>
				<v:cp v:nameU="Duration" v:lbl="Duration" v:type="2" v:langID="1033"/>
				<v:cp v:nameU="Resources" v:lbl="Resources" v:langID="1033"/>
			</v:custProps>
			<v:userDefs>
				<v:ud v:nameU="visVersion" v:val="VT0(15):26"/>
			</v:userDefs>
			<v:textBlock v:margins="rect(1,1,1,1)" v:tabSpace="42.5197"/>
			<v:textRect cx="28.3465" cy="666.122" width="56.7" height="56.6929"/>
			<g id="shadow10-44" v:groupContext="shadow" v:shadowOffsetX="0.345598" v:shadowOffsetY="-1.97279" v:shadowType="1"
					transform="matrix(1,0,0,1,0.345598,1.97279)" class="st3">
				<path d="M0 666.12 A28.3465 28.3465 0 0 1 56.69 666.12 A28.3465 28.3465 0 1 1 0 666.12 Z" class="st4"/>
			</g>
			<path d="M0 666.12 A28.3465 28.3465 0 0 1 56.69 666.12 A28.3465 28.3465 0 1 1 0 666.12 Z" class="st6"/>
			<text x="20.1" y="668.52" class="st7" v:langID="4105"><v:paragraph v:horizAlign="1"/><v:tabList/>Error</text>		</g>
		<g id="shape11-49" v:mID="11" v:groupContext="shape" v:layerMember="1" transform="translate(524.093,-542.439)">
			<title>Dynamic connector.11</title>
			<path d="M7.09 694.47 L7.09 644.82" class="st8"/>
		</g>
		<g id="shape12-54" v:mID="12" v:groupContext="shape" v:layerMember="1" transform="translate(502.833,-514.092)">
			<title>Dynamic connector.12</title>
			<path d="M0 694.47 C-23.12 694.47 -39.37 667.03 -50.72 639.59 C-62.06 612.2 -68.52 584.81 -101.13 581.43 L-101.49 581.41"
					class="st10"/>
		</g>
		<g id="shape13-60" v:mID="13" v:groupContext="shape" v:layerMember="0" transform="translate(238.763,-372.36)">
			<title>Data process.13</title>
			<desc>Load User File</desc>
			<v:custProps>
				<v:cp v:nameU="Cost" v:lbl="Cost" v:type="7" v:format="@" v:langID="1033"/>
				<v:cp v:nameU="Duration" v:lbl="Duration" v:type="2" v:langID="1033"/>
				<v:cp v:nameU="Resources" v:lbl="Resources" v:langID="1033"/>
			</v:custProps>
			<v:userDefs>
				<v:ud v:nameU="visVersion" v:val="VT0(15):26"/>
			</v:userDefs>
			<v:textBlock v:margins="rect(1,1,1,1)" v:tabSpace="42.5197"/>
			<v:textRect cx="28.3465" cy="666.122" width="56.7" height="56.6929"/>
			<g id="shadow13-61" v:groupContext="shadow" v:shadowOffsetX="0.345598" v:shadowOffsetY="-1.97279" v:shadowType="1"
					transform="matrix(1,0,0,1,0.345598,1.97279)" class="st3">
				<path d="M0 666.12 A28.3465 28.3465 0 0 1 56.69 666.12 A28.3465 28.3465 0 1 1 0 666.12 Z" class="st4"/>
			</g>
			<path d="M0 666.12 A28.3465 28.3465 0 0 1 56.69 666.12 A28.3465 28.3465 0 1 1 0 666.12 Z" class="st6"/>
			<text x="5.55" y="668.52" class="st7" v:langID="4105"><v:paragraph v:horizAlign="1"/><v:tabList/>Load User File</text>		</g>
		<g id="shape14-66" v:mID="14" v:groupContext="shape" v:layerMember="1" transform="translate(337.976,-514.092)">
			<title>Dynamic connector.14</title>
			<path d="M0 694.47 C-17.72 694.47 -43.62 694.47 -56.9 709.62 C-69.4 723.88 -70.71 751.57 -70.85 772.47 L-70.85 772.83"
					class="st10"/>
		</g>
		<g id="shape15-71" v:mID="15" v:groupContext="shape" v:layerMember="0" transform="translate(456.583,-372.36)">
			<title>Data process.15</title>
			<desc>Create File</desc>
			<v:custProps>
				<v:cp v:nameU="Cost" v:lbl="Cost" v:type="7" v:format="@" v:langID="1033"/>
				<v:cp v:nameU="Duration" v:lbl="Duration" v:type="2" v:langID="1033"/>
				<v:cp v:nameU="Resources" v:lbl="Resources" v:langID="1033"/>
			</v:custProps>
			<v:userDefs>
				<v:ud v:nameU="visVersion" v:val="VT0(15):26"/>
			</v:userDefs>
			<v:textBlock v:margins="rect(1,1,1,1)" v:tabSpace="42.5197"/>
			<v:textRect cx="28.3465" cy="666.122" width="56.7" height="56.6929"/>
			<g id="shadow15-72" v:groupContext="shadow" v:shadowOffsetX="0.345598" v:shadowOffsetY="-1.97279" v:shadowType="1"
					transform="matrix(1,0,0,1,0.345598,1.97279)" class="st3">
				<path d="M0 666.12 A28.3465 28.3465 0 0 1 56.69 666.12 A28.3465 28.3465 0 1 1 0 666.12 Z" class="st4"/>
			</g>
			<path d="M0 666.12 A28.3465 28.3465 0 0 1 56.69 666.12 A28.3465 28.3465 0 1 1 0 666.12 Z" class="st6"/>
			<text x="11.01" y="668.52" class="st7" v:langID="4105"><v:paragraph v:horizAlign="1"/><v:tabList/>Create File</text>		</g>
		<g id="shape16-77" v:mID="16" v:groupContext="shape" v:layerMember="1" transform="translate(394.669,-514.092)">
			<title>Dynamic connector.16</title>
			<path d="M0 694.47 C22.57 694.47 56.7 694.47 73.62 710.68 C88.51 724.94 90.08 751.75 90.24 772.47 L90.24 772.83"
					class="st10"/>
		</g>
		<g id="shape17-82" v:mID="17" v:groupContext="shape" v:layerMember="0" transform="translate(238.763,-230.628)">
			<title>Data process.17</title>
			<desc>UDP</desc>
			<v:custProps>
				<v:cp v:nameU="Cost" v:lbl="Cost" v:type="7" v:format="@" v:langID="1033"/>
				<v:cp v:nameU="Duration" v:lbl="Duration" v:type="2" v:langID="1033"/>
				<v:cp v:nameU="Resources" v:lbl="Resources" v:langID="1033"/>
			</v:custProps>
			<v:userDefs>
				<v:ud v:nameU="visVersion" v:val="VT0(15):26"/>
			</v:userDefs>
			<v:textBlock v:margins="rect(1,1,1,1)" v:tabSpace="42.5197"/>
			<v:textRect cx="28.3465" cy="666.122" width="56.7" height="56.6929"/>
			<g id="shadow17-83" v:groupContext="shadow" v:shadowOffsetX="0.345598" v:shadowOffsetY="-1.97279" v:shadowType="1"
					transform="matrix(1,0,0,1,0.345598,1.97279)" class="st3">
				<path d="M0 666.12 A28.3465 28.3465 0 0 1 56.69 666.12 A28.3465 28.3465 0 1 1 0 666.12 Z" class="st4"/>
			</g>
			<path d="M0 666.12 A28.3465 28.3465 0 0 1 56.69 666.12 A28.3465 28.3465 0 1 1 0 666.12 Z" class="st6"/>
			<text x="21.25" y="668.52" class="st7" v:langID="4105"><v:paragraph v:horizAlign="1"/><v:tabList/>UDP</text>		</g>
		<g id="shape18-88" v:mID="18" v:groupContext="shape" v:layerMember="0" transform="translate(456.583,-230.628)">
			<title>Data process.18</title>
			<desc>TCP</desc>
			<v:custProps>
				<v:cp v:nameU="Cost" v:lbl="Cost" v:type="7" v:format="@" v:langID="1033"/>
				<v:cp v:nameU="Duration" v:lbl="Duration" v:type="2" v:langID="1033"/>
				<v:cp v:nameU="Resources" v:lbl="Resources" v:langID="1033"/>
			</v:custProps>
			<v:userDefs>
				<v:ud v:nameU="visVersion" v:val="VT0(15):26"/>
			</v:userDefs>
			<v:textBlock v:margins="rect(1,1,1,1)" v:tabSpace="42.5197"/>
			<v:textRect cx="28.3465" cy="666.122" width="56.7" height="56.6929"/>
			<g id="shadow18-89" v:groupContext="shadow" v:shadowOffsetX="0.345598" v:shadowOffsetY="-1.97279" v:shadowType="1"
					transform="matrix(1,0,0,1,0.345598,1.97279)" class="st3">
				<path d="M0 666.12 A28.3465 28.3465 0 0 1 56.69 666.12 A28.3465 28.3465 0 1 1 0 666.12 Z" class="st4"/>
			</g>
			<path d="M0 666.12 A28.3465 28.3465 0 0 1 56.69 666.12 A28.3465 28.3465 0 1 1 0 666.12 Z" class="st6"/>
			<text x="22.2" y="668.52" class="st7" v:langID="4105"><v:paragraph v:horizAlign="1"/><v:tabList/>TCP</text>		</g>
		<g id="shape19-94" v:mID="19" v:groupContext="shape" v:layerMember="1" transform="translate(477.843,-372.36)">
			<title>Dynamic connector.19</title>
			<path d="M7.09 694.47 L7.09 772.47" class="st8"/>
		</g>
		<g id="shape20-99" v:mID="20" v:groupContext="shape" v:layerMember="1" transform="translate(260.023,-372.36)">
			<title>Dynamic connector.20</title>
			<path d="M7.09 694.47 L7.09 772.47" class="st8"/>
		</g>
		<g id="shape21-104" v:mID="21" v:groupContext="shape" v:layerMember="1" transform="translate(484.93,-372.36)">
			<title>Dynamic connector.21</title>
			<path d="M0 694.47 C-0 731.32 -54.24 727.62 -108.5 728.46 C-160.15 729.25 -211.82 734.17 -217.33 772.49 L-217.36 772.84"
					class="st10"/>
		</g>
		<g id="shape22-109" v:mID="22" v:groupContext="shape" v:layerMember="1" transform="translate(267.11,-372.36)">
			<title>Dynamic connector.22</title>
			<path d="M0 694.47 C-0 728.48 58.28 731.64 112.19 728.55 C165.17 725.52 213.93 716.46 217.6 772.47 L217.61 772.83"
					class="st10"/>
		</g>
		<g id="shape23-114" v:mID="23" v:groupContext="shape" v:layerMember="0" transform="translate(337.976,-111.274)">
			<title>Data process.23</title>
			<desc>Send Response to Client</desc>
			<v:custProps>
				<v:cp v:nameU="Cost" v:lbl="Cost" v:type="7" v:format="@" v:langID="1033"/>
				<v:cp v:nameU="Duration" v:lbl="Duration" v:type="2" v:langID="1033"/>
				<v:cp v:nameU="Resources" v:lbl="Resources" v:langID="1033"/>
			</v:custProps>
			<v:userDefs>
				<v:ud v:nameU="visVersion" v:val="VT0(15):26"/>
			</v:userDefs>
			<v:textBlock v:margins="rect(1,1,1,1)" v:tabSpace="42.5197"/>
			<v:textRect cx="28.3465" cy="666.122" width="56.7" height="56.6929"/>
			<g id="shadow23-115" v:groupContext="shadow" v:shadowOffsetX="0.345598" v:shadowOffsetY="-1.97279" v:shadowType="1"
					transform="matrix(1,0,0,1,0.345598,1.97279)" class="st3">
				<path d="M0 666.12 A28.3465 28.3465 0 0 1 56.69 666.12 A28.3465 28.3465 0 1 1 0 666.12 Z" class="st4"/>
			</g>
			<path d="M0 666.12 A28.3465 28.3465 0 0 1 56.69 666.12 A28.3465 28.3465 0 1 1 0 666.12 Z" class="st6"/>
			<text x="3.82" y="663.72" class="st7" v:langID="4105"><v:paragraph v:horizAlign="1"/><v:tabList/>Send Response <tspan
						x="14.59" dy="1.2em" class="st11">to Client</tspan></text>		</g>
		<g id="shape24-121" v:mID="24" v:groupContext="shape" v:layerMember="1" transform="translate(484.93,-230.628)">
			<title>Dynamic connector.24</title>
			<path d="M0 694.47 C-0 717.22 0 751.39 -16.96 768.45 C-32.2 783.78 -61.14 785.31 -83.22 785.46 L-83.58 785.46"
					class="st10"/>
		</g>
		<g id="shape25-126" v:mID="25" v:groupContext="shape" v:layerMember="1" transform="translate(267.11,-230.628)">
			<title>Dynamic connector.25</title>
			<path d="M0 694.47 C0 717.22 -0 752.52 14.22 769.56 C25.81 783.47 46.88 785.22 63.83 785.44 L64.19 785.45" class="st10"/>
		</g>
		<g id="shape26-131" v:mID="26" v:groupContext="shape" v:layerMember="1" transform="translate(330.889,-139.62)">
			<title>Dynamic connector.26</title>
			<path d="M7.09 694.47 C-120.47 695.59 -106.31 569.94 -106.3 447.82 C-106.28 325.44 -120.47 206.61 7.09 206.61"
					class="st12"/>
		</g>
		<g id="shape27-137" v:mID="27" v:groupContext="shape" v:layerMember="0" transform="translate(67.2894,-485.746)">
			<title>State</title>
			<desc>Start Thread Open TCP Meta Connection</desc>
			<v:custProps>
				<v:cp v:nameU="Cost" v:lbl="Cost" v:type="7" v:format="@" v:langID="1033"/>
				<v:cp v:nameU="Duration" v:lbl="Duration" v:type="2" v:langID="1033"/>
				<v:cp v:nameU="Resources" v:lbl="Resources" v:langID="1033"/>
			</v:custProps>
			<v:userDefs>
				<v:ud v:nameU="visVersion" v:val="VT0(15):26"/>
			</v:userDefs>
			<v:textBlock v:margins="rect(1,1,1,1)" v:tabSpace="42.5197"/>
			<v:textRect cx="28.3465" cy="666.122" width="56.7" height="56.6929"/>
			<g id="shadow27-138" v:groupContext="shadow" v:shadowOffsetX="0.345598" v:shadowOffsetY="-1.97279" v:shadowType="1"
					transform="matrix(1,0,0,1,0.345598,1.97279)" class="st3">
				<path d="M0 666.12 A28.3465 28.3465 0 0 1 56.69 666.12 A28.3465 28.3465 0 1 1 0 666.12 Z" class="st13"/>
			</g>
			<path d="M0 666.12 A28.3465 28.3465 0 0 1 56.69 666.12 A28.3465 28.3465 0 1 1 0 666.12 Z" class="st14"/>
			<text x="9.07" y="658.92" class="st7" v:langID="4105"><v:paragraph v:horizAlign="1"/><v:tabList/>Start Thread <tspan
						x="2.88" dy="1.2em" class="st11">Open TCP Meta </tspan><tspan x="9.75" dy="1.2em" class="st11">Connection</tspan></text>		</g>
		<g id="shape29-145" v:mID="29" v:groupContext="shape" v:layerMember="1" transform="translate(337.976,-507.005)">
			<title>Dynamic connector.29</title>
			<path d="M0 687.38 L-206.95 687.38" class="st15"/>
		</g>
		<g id="shape32-151" v:mID="32" v:groupContext="shape" v:layerMember="0" transform="translate(67.2894,-318.651)">
			<title>Data process.32</title>
			<desc>Wait For Protocol Thread Response</desc>
			<v:custProps>
				<v:cp v:nameU="Cost" v:lbl="Cost" v:type="7" v:format="@" v:langID="1033"/>
				<v:cp v:nameU="Duration" v:lbl="Duration" v:type="2" v:langID="1033"/>
				<v:cp v:nameU="Resources" v:lbl="Resources" v:langID="1033"/>
			</v:custProps>
			<v:userDefs>
				<v:ud v:nameU="visVersion" v:val="VT0(15):26"/>
			</v:userDefs>
			<v:textBlock v:margins="rect(1,1,1,1)" v:tabSpace="42.5197"/>
			<v:textRect cx="28.3465" cy="666.122" width="56.7" height="56.6929"/>
			<g id="shadow32-152" v:groupContext="shadow" v:shadowOffsetX="0.345598" v:shadowOffsetY="-1.97279" v:shadowType="1"
					transform="matrix(1,0,0,1,0.345598,1.97279)" class="st3">
				<path d="M0 666.12 A28.3465 28.3465 0 0 1 56.69 666.12 A28.3465 28.3465 0 1 1 0 666.12 Z" class="st17"/>
			</g>
			<path d="M0 666.12 A28.3465 28.3465 0 0 1 56.69 666.12 A28.3465 28.3465 0 1 1 0 666.12 Z" class="st18"/>
			<text x="14.37" y="658.92" class="st7" v:langID="4105"><v:paragraph v:horizAlign="1"/><v:tabList/>Wait For <tspan
						x="2.25" dy="1.2em" class="st11">Protocol Thread </tspan><tspan x="12.75" dy="1.2em" class="st11">Response</tspan></text>		</g>
		<g id="shape33-159" v:mID="33" v:groupContext="shape" v:layerMember="1" transform="translate(88.5492,-485.746)">
			<title>Dynamic connector.33</title>
			<path d="M7.09 694.47 L7.09 797.83" class="st15"/>
		</g>
		<g id="shape34-164" v:mID="34" v:groupContext="shape" v:layerMember="1" transform="translate(337.976,-139.62)">
			<title>Dynamic connector.34</title>
			<desc>Response</desc>
			<v:textBlock v:margins="rect(4,4,4,4)" v:tabSpace="42.5197"/>
			<v:textRect cx="-134.347" cy="583.45" width="41" height="17.6036"/>
			<path d="M0 694.47 C-114.78 694.47 -118.55 653.16 -130.29 597.42 C-140.23 550.22 -155.9 492.68 -206.96 487.47 L-207.32
						 487.45" class="st19"/>
			<rect v:rectContext="textBkgnd" x="-149.941" y="578.65" width="31.1872" height="9.59985" class="st20"/>
			<text x="-149.94" y="585.85" class="st21" v:langID="4105"><v:paragraph v:horizAlign="1"/><v:tabList/>Response</text>		</g>
		<g id="shape35-172" v:mID="35" v:groupContext="shape" v:layerMember="0" transform="translate(67.2894,-151.556)">
			<title>Data process.35</title>
			<desc>Process Results</desc>
			<v:custProps>
				<v:cp v:nameU="Cost" v:lbl="Cost" v:type="7" v:format="@" v:langID="1033"/>
				<v:cp v:nameU="Duration" v:lbl="Duration" v:type="2" v:langID="1033"/>
				<v:cp v:nameU="Resources" v:lbl="Resources" v:langID="1033"/>
			</v:custProps>
			<v:userDefs>
				<v:ud v:nameU="visVersion" v:val="VT0(15):26"/>
			</v:userDefs>
			<v:textBlock v:margins="rect(1,1,1,1)" v:tabSpace="42.5197"/>
			<v:textRect cx="28.3465" cy="666.122" width="56.7" height="56.6929"/>
			<g id="shadow35-173" v:groupContext="shadow" v:shadowOffsetX="0.345598" v:shadowOffsetY="-1.97279" v:shadowType="1"
					transform="matrix(1,0,0,1,0.345598,1.97279)" class="st3">
				<path d="M0 666.12 A28.3465 28.3465 0 0 1 56.69 666.12 A28.3465 28.3465 0 1 1 0 666.12 Z" class="st17"/>
			</g>
			<path d="M0 666.12 A28.3465 28.3465 0 0 1 56.69 666.12 A28.3465 28.3465 0 1 1 0 666.12 Z" class="st18"/>
			<text x="3.41" y="668.52" class="st7" v:langID="4105"><v:paragraph v:horizAlign="1"/><v:tabList/>Process Results</text>		</g>
		<g id="shape36-178" v:mID="36" v:groupContext="shape" v:layerMember="1" transform="translate(88.5492,-318.651)">
			<title>Dynamic connector.36</title>
			<path d="M7.09 694.47 L7.09 797.83" class="st22"/>
		</g>
		<g id="shape38-183" v:mID="38" v:groupContext="shape" v:layerMember="1" transform="translate(88.5492,-151.556)">
			<title>Dynamic connector.38</title>
			<path d="M7.09 694.47 L7.09 776.94" class="st22"/>
		</g>
		<g id="shape37-188" v:mID="37" v:groupContext="shape" v:layerMember="0" transform="translate(67.2894,-5.3478)">
			<title>Data process.37</title>
			<desc>CloseThread</desc>
			<v:custProps>
				<v:cp v:nameU="Cost" v:lbl="Cost" v:type="7" v:format="@" v:langID="1033"/>
				<v:cp v:nameU="Duration" v:lbl="Duration" v:type="2" v:langID="1033"/>
				<v:cp v:nameU="Resources" v:lbl="Resources" v:langID="1033"/>
			</v:custProps>
			<v:userDefs>
				<v:ud v:nameU="visVersion" v:val="VT0(15):26"/>
			</v:userDefs>
			<v:textBlock v:margins="rect(1,1,1,1)" v:tabSpace="42.5197"/>
			<v:textRect cx="28.3465" cy="666.122" width="56.7" height="56.6929"/>
			<g id="shadow37-189" v:groupContext="shadow" v:shadowOffsetX="0.345598" v:shadowOffsetY="-1.97279" v:shadowType="1"
					transform="matrix(1,0,0,1,0.345598,1.97279)" class="st3">
				<path d="M0 666.12 A28.3465 28.3465 0 0 1 56.69 666.12 A28.3465 28.3465 0 1 1 0 666.12 Z" class="st13"/>
			</g>
			<path d="M0 666.12 A28.3465 28.3465 0 0 1 56.69 666.12 A28.3465 28.3465 0 1 1 0 666.12 Z" class="st14"/>
			<text x="8.18" y="668.52" class="st7" v:langID="4105"><v:paragraph v:horizAlign="1"/><v:tabList/>CloseThread</text>		</g>
	</g>
</svg>
