<?xml version="1.0" encoding="UTF-8" standalone="no"?>
<!DOCTYPE svg PUBLIC "-//W3C//DTD SVG 1.1//EN" "http://www.w3.org/Graphics/SVG/1.1/DTD/svg11.dtd">
<!-- Generated by Microsoft Visio, SVG Export StateDiagram.svg Page-1 -->
<svg xmlns="http://www.w3.org/2000/svg" xmlns:xlink="http://www.w3.org/1999/xlink" xmlns:ev="http://www.w3.org/2001/xml-events"
		xmlns:v="http://schemas.microsoft.com/visio/2003/SVGExtensions/" width="4.76643in" height="6.8654in"
		viewBox="0 0 343.183 494.309" xml:space="preserve" color-interpolation-filters="sRGB" class="st25">
	<v:documentProperties v:langID="1033" v:metric="true" v:viewMarkup="false"/>

	<style type="text/css">
	<![CDATA[
		.st1 {visibility:visible}
		.st2 {fill:#5b9bd5;fill-opacity:0.22;filter:url(#filter_2);stroke:#5b9bd5;stroke-opacity:0.22}
		.st3 {fill:#9bc2e6;stroke:#c8c8c8;stroke-width:0.25}
		.st4 {fill:#5b9bd5;stroke:#c8c8c8;stroke-width:0.25}
		.st5 {fill:#feffff;font-family:Calibri;font-size:0.666664em}
		.st6 {marker-end:url(#mrkr4-23);stroke:#5b9bd5;stroke-linecap:round;stroke-linejoin:round;stroke-width:1}
		.st7 {fill:#5b9bd5;fill-opacity:1;stroke:#5b9bd5;stroke-opacity:1;stroke-width:0.28409090909091}
		.st8 {font-size:1em}
		.st9 {fill:#70ad47;fill-opacity:0.22;filter:url(#filter_2);stroke:#70ad47;stroke-opacity:0.22}
		.st10 {fill:#70ad47;stroke:#c8c8c8;stroke-width:0.25}
		.st11 {marker-end:url(#mrkr4-54);stroke:#70ad47;stroke-dasharray:3,3;stroke-linecap:round;stroke-linejoin:round;stroke-width:1}
		.st12 {fill:#70ad47;fill-opacity:1;stroke:#70ad47;stroke-opacity:1;stroke-width:0.28409090909091}
		.st13 {fill:#ffffff;stroke:none;stroke-linecap:butt;stroke-width:7.2}
		.st14 {fill:#62983d;font-family:Calibri;font-size:0.666664em}
		.st15 {marker-end:url(#mrkr4-63);stroke:#5b9bd5;stroke-linecap:round;stroke-linejoin:round;stroke-width:1}
		.st16 {fill:#4f88bb;font-family:Calibri;font-size:0.666664em}
		.st17 {marker-end:url(#mrkr4-78);stroke:#70ad47;stroke-linecap:round;stroke-linejoin:round;stroke-width:1}
		.st18 {marker-end:url(#mrkr4-54);stroke:#70ad47;stroke-linecap:round;stroke-linejoin:round;stroke-width:1}
		.st19 {fill:#ffffff;stroke:none;stroke-linecap:butt}
		.st20 {fill:#5b9bd5;fill-opacity:0.25;filter:url(#filter_2)}
		.st21 {fill:none;filter:url(#filter_2);stroke:#5b9bd5;stroke-opacity:0.25}
		.st22 {fill:#4f87bb}
		.st23 {stroke:#40709c;stroke-width:0.75}
		.st24 {fill:#feffff;font-family:Calibri;font-size:0.833336em}
		.st25 {fill:none;fill-rule:evenodd;font-size:12px;overflow:visible;stroke-linecap:square;stroke-miterlimit:3}
	]]>
	</style>

	<defs id="Markers">
		<g id="lend4">
			<path d="M 2 1 L 0 0 L 2 -1 L 2 1 " style="stroke:none"/>
		</g>
		<marker id="mrkr4-23" class="st7" v:arrowType="4" v:arrowSize="2" v:setback="7.04" refX="-7.04" orient="auto"
				markerUnits="strokeWidth" overflow="visible">
			<use xlink:href="#lend4" transform="scale(-3.52,-3.52) "/>
		</marker>
		<marker id="mrkr4-54" class="st12" v:arrowType="4" v:arrowSize="2" v:setback="6.68" refX="-6.68" orient="auto"
				markerUnits="strokeWidth" overflow="visible">
			<use xlink:href="#lend4" transform="scale(-3.52,-3.52) "/>
		</marker>
		<marker id="mrkr4-63" class="st7" v:arrowType="4" v:arrowSize="2" v:setback="6.68" refX="-6.68" orient="auto"
				markerUnits="strokeWidth" overflow="visible">
			<use xlink:href="#lend4" transform="scale(-3.52,-3.52) "/>
		</marker>
		<marker id="mrkr4-78" class="st12" v:arrowType="4" v:arrowSize="2" v:setback="7.04" refX="-7.04" orient="auto"
				markerUnits="strokeWidth" overflow="visible">
			<use xlink:href="#lend4" transform="scale(-3.52,-3.52) "/>
		</marker>
	</defs>
	<defs id="Filters">
		<filter id="filter_2">
			<feGaussianBlur stdDeviation="2"/>
		</filter>
	</defs>
	<g v:mID="0" v:index="1" v:groupContext="foregroundPage">
		<title>Page-1</title>
		<v:pageProperties v:drawingScale="0.0393701" v:pageScale="0.0393701" v:drawingUnits="24" v:shadowOffsetX="8.50394"
				v:shadowOffsetY="-8.50394"/>
		<v:layer v:name="Flowchart" v:index="0"/>
		<v:layer v:name="Connector" v:index="1"/>
		<v:layer v:name="Callout" v:index="2"/>
		<g id="group1-1" transform="translate(132.533,-436.214)" v:mID="1" v:groupContext="group" v:layerMember="0">
			<v:custProps>
				<v:cp v:nameU="Cost" v:lbl="Cost" v:type="7" v:format="@" v:langID="1033"/>
				<v:cp v:nameU="Duration" v:lbl="Duration" v:type="2" v:langID="1033"/>
				<v:cp v:nameU="Resources" v:lbl="Resources" v:langID="1033"/>
			</v:custProps>
			<v:userDefs>
				<v:ud v:nameU="visVersion" v:val="VT0(15):26"/>
			</v:userDefs>
			<title>Start state</title>
			<desc>Listen()</desc>
			<g id="shape2-2" v:mID="2" v:groupContext="shape" v:layerMember="0">
				<title>Sheet.2</title>
				<g id="shadow2-3" v:groupContext="shadow" v:shadowOffsetX="0.345598" v:shadowOffsetY="-1.97279" v:shadowType="1"
						transform="matrix(1,0,0,1,0.345598,1.97279)" class="st1">
					<path d="M0 465.96 A28.3465 28.3465 0 0 1 56.69 465.96 A28.3465 28.3465 0 1 1 0 465.96 Z" class="st2"/>
				</g>
				<path d="M0 465.96 A28.3465 28.3465 0 0 1 56.69 465.96 A28.3465 28.3465 0 1 1 0 465.96 Z" class="st3"/>
			</g>
			<g id="shape3-7" v:mID="3" v:groupContext="shape" v:layerMember="0" transform="translate(5.66929,-5.66929)">
				<title>Sheet.3</title>
				<path d="M0 471.63 A22.6772 22.6772 0 0 1 45.35 471.63 A22.6772 22.6772 0 1 1 0 471.63 Z" class="st4"/>
			</g>
			<g id="shape1-9" v:mID="1" v:groupContext="groupContent" v:layerMember="0">
				<v:textBlock v:margins="rect(4,4,4,4)" v:tabSpace="42.5197"/>
				<v:textRect cx="28.3465" cy="465.963" width="56.7" height="56.6929"/>
				<g id="shadow1-10" v:groupContext="shadow" v:shadowOffsetX="0.345598" v:shadowOffsetY="-1.97279" v:shadowType="1"
						transform="matrix(1,0,0,1,0.345598,1.97279)" class="st1"/>
				<text x="16.33" y="468.36" class="st5" v:langID="4105"><v:paragraph v:horizAlign="1"/><v:tabList/>Listen()</text>			</g>
		</g>
		<g id="shape4-12" v:mID="4" v:groupContext="shape" v:layerMember="0" transform="translate(125.447,-322.828)">
			<title>State</title>
			<desc>ClientConnection</desc>
			<v:custProps>
				<v:cp v:nameU="Cost" v:lbl="Cost" v:type="7" v:format="@" v:langID="1033"/>
				<v:cp v:nameU="Duration" v:lbl="Duration" v:type="2" v:langID="1033"/>
				<v:cp v:nameU="Resources" v:lbl="Resources" v:langID="1033"/>
			</v:custProps>
			<v:userDefs>
				<v:ud v:nameU="visVersion" v:val="VT0(15):26"/>
			</v:userDefs>
			<v:textBlock v:margins="rect(1,1,1,1)" v:tabSpace="42.5197"/>
			<v:textRect cx="35.4331" cy="458.876" width="70.87" height="70.8661"/>
			<g id="shadow4-13" v:groupContext="shadow" v:shadowOffsetX="0.345598" v:shadowOffsetY="-1.97279" v:shadowType="1"
					transform="matrix(1,0,0,1,0.345598,1.97279)" class="st1">
				<path d="M0 458.88 A35.4331 35.4331 0 0 1 70.87 458.88 A35.4331 35.4331 0 1 1 0 458.88 Z" class="st2"/>
			</g>
			<path d="M0 458.88 A35.4331 35.4331 0 0 1 70.87 458.88 A35.4331 35.4331 0 1 1 0 458.88 Z" class="st4"/>
			<text x="7.44" y="461.28" class="st5" v:langID="4105"><v:paragraph v:horizAlign="1"/><v:tabList/>ClientConnection</text>		</g>
		<g id="shape5-18" v:mID="5" v:groupContext="shape" v:layerMember="1" transform="translate(153.793,-436.214)">
			<title>Dynamic connector</title>
			<path d="M7.09 494.31 L7.09 529.79" class="st6"/>
		</g>
		<g id="shape6-24" v:mID="6" v:groupContext="shape" v:layerMember="0" transform="translate(132.533,-223.616)">
			<title>Data process</title>
			<desc>Pass Connection To Thread</desc>
			<v:custProps>
				<v:cp v:nameU="Cost" v:lbl="Cost" v:type="7" v:format="@" v:langID="1033"/>
				<v:cp v:nameU="Duration" v:lbl="Duration" v:type="2" v:langID="1033"/>
				<v:cp v:nameU="Resources" v:lbl="Resources" v:langID="1033"/>
			</v:custProps>
			<v:userDefs>
				<v:ud v:nameU="visVersion" v:val="VT0(15):26"/>
			</v:userDefs>
			<v:textBlock v:margins="rect(1,1,1,1)" v:tabSpace="42.5197"/>
			<v:textRect cx="28.3465" cy="465.963" width="56.7" height="56.6929"/>
			<g id="shadow6-25" v:groupContext="shadow" v:shadowOffsetX="0.345598" v:shadowOffsetY="-1.97279" v:shadowType="1"
					transform="matrix(1,0,0,1,0.345598,1.97279)" class="st1">
				<path d="M0 465.96 A28.3465 28.3465 0 0 1 56.69 465.96 A28.3465 28.3465 0 1 1 0 465.96 Z" class="st2"/>
			</g>
			<path d="M0 465.96 A28.3465 28.3465 0 0 1 56.69 465.96 A28.3465 28.3465 0 1 1 0 465.96 Z" class="st4"/>
			<text x="1.74" y="463.56" class="st5" v:langID="4105"><v:paragraph v:horizAlign="1"/><v:tabList/>Pass Connection <tspan
						x="11.93" dy="1.2em" class="st8">To Thread</tspan></text>		</g>
		<g id="shape7-31" v:mID="7" v:groupContext="shape" v:layerMember="1" transform="translate(153.793,-322.828)">
			<title>Dynamic connector.7</title>
			<path d="M7.09 494.31 L7.09 529.79" class="st6"/>
		</g>
		<g id="shape9-36" v:mID="9" v:groupContext="shape" v:layerMember="0" transform="translate(132.533,-124.403)">
			<title>Data process.9</title>
			<desc>Wait for Protocol Connect</desc>
			<v:custProps>
				<v:cp v:nameU="Cost" v:lbl="Cost" v:type="7" v:format="@" v:langID="1033"/>
				<v:cp v:nameU="Duration" v:lbl="Duration" v:type="2" v:langID="1033"/>
				<v:cp v:nameU="Resources" v:lbl="Resources" v:langID="1033"/>
			</v:custProps>
			<v:userDefs>
				<v:ud v:nameU="visVersion" v:val="VT0(15):26"/>
			</v:userDefs>
			<v:textBlock v:margins="rect(1,1,1,1)" v:tabSpace="42.5197"/>
			<v:textRect cx="28.3465" cy="465.963" width="56.7" height="56.6929"/>
			<g id="shadow9-37" v:groupContext="shadow" v:shadowOffsetX="0.345598" v:shadowOffsetY="-1.97279" v:shadowType="1"
					transform="matrix(1,0,0,1,0.345598,1.97279)" class="st1">
				<path d="M0 465.96 A28.3465 28.3465 0 0 1 56.69 465.96 A28.3465 28.3465 0 1 1 0 465.96 Z" class="st9"/>
			</g>
			<path d="M0 465.96 A28.3465 28.3465 0 0 1 56.69 465.96 A28.3465 28.3465 0 1 1 0 465.96 Z" class="st10"/>
			<text x="14.99" y="458.76" class="st5" v:langID="4105"><v:paragraph v:horizAlign="1"/><v:tabList/>Wait for <tspan
						x="14.61" dy="1.2em" class="st8">Protocol </tspan><tspan x="14.88" dy="1.2em" class="st8">Connect</tspan></text>		</g>
		<g id="shape11-44" v:mID="11" v:groupContext="shape" v:layerMember="1" transform="translate(153.793,-223.616)">
			<title>Dynamic connector.11</title>
			<path d="M7.09 494.31 L7.09 529.79" class="st6"/>
		</g>
		<g id="shape14-49" v:mID="14" v:groupContext="shape" v:layerMember="1" transform="translate(199.856,-358.261)">
			<title>Dynamic connector.14</title>
			<desc>TCP Meta Thread Open / Protocol Connect</desc>
			<v:textBlock v:margins="rect(4,4,4,4)" v:tabSpace="42.5197"/>
			<v:textRect cx="48.8976" cy="597.774" width="92.17" height="27.2035"/>
			<path d="M-3.54 494.31 C17.72 494.31 48.83 546.29 48.9 597.56 C48.96 644.85 22.6 691.54 -3.66 698.84 L-4.02 698.89"
					class="st11"/>
			<rect v:rectContext="textBkgnd" x="8.62626" y="588.174" width="80.5427" height="19.1997" class="st13"/>
			<text x="8.63" y="595.37" class="st14" v:langID="4105"><v:paragraph v:horizAlign="1"/><v:tabList/>TCP Meta Thread Open / <v:newlineChar/><tspan
						x="20.79" dy="1.2em" class="st8">Protocol Connect</tspan></text>		</g>
		<g id="shape15-58" v:mID="15" v:groupContext="shape" v:layerMember="1" transform="translate(121.903,-358.261)">
			<title>Dynamic connector.15</title>
			<desc>TCP Meta Already Open</desc>
			<v:textBlock v:margins="rect(4,4,4,4)" v:tabSpace="42.5197"/>
			<v:textRect cx="-11.4541" cy="439.541" width="87.45" height="17.6036"/>
			<path d="M3.54 494.31 C-15.89 494.31 -17.56 405.49 3.95 390.23 L4.29 390.11" class="st15"/>
			<rect v:rectContext="textBkgnd" x="-50.2682" y="434.742" width="77.6283" height="9.59985" class="st13"/>
			<text x="-50.27" y="441.94" class="st16" v:langID="4105"><v:paragraph v:horizAlign="1"/><v:tabList/>TCP Meta Already Open</text>		</g>
		<g id="shape17-66" v:mID="17" v:groupContext="shape" v:layerMember="0" transform="translate(132.533,-5.3478)">
			<title>Data process.17</title>
			<desc>Record Incoming Files</desc>
			<v:custProps>
				<v:cp v:nameU="Cost" v:lbl="Cost" v:type="7" v:format="@" v:langID="1033"/>
				<v:cp v:nameU="Duration" v:lbl="Duration" v:type="2" v:langID="1033"/>
				<v:cp v:nameU="Resources" v:lbl="Resources" v:langID="1033"/>
			</v:custProps>
			<v:userDefs>
				<v:ud v:nameU="visVersion" v:val="VT0(15):26"/>
			</v:userDefs>
			<v:textBlock v:margins="rect(1,1,1,1)" v:tabSpace="42.5197"/>
			<v:textRect cx="28.3465" cy="465.963" width="56.7" height="56.6929"/>
			<g id="shadow17-67" v:groupContext="shadow" v:shadowOffsetX="0.345598" v:shadowOffsetY="-1.97279" v:shadowType="1"
					transform="matrix(1,0,0,1,0.345598,1.97279)" class="st1">
				<path d="M0 465.96 A28.3465 28.3465 0 0 1 56.69 465.96 A28.3465 28.3465 0 1 1 0 465.96 Z" class="st9"/>
			</g>
			<path d="M0 465.96 A28.3465 28.3465 0 0 1 56.69 465.96 A28.3465 28.3465 0 1 1 0 465.96 Z" class="st10"/>
			<text x="16.89" y="463.56" class="st5" v:langID="4105"><v:paragraph v:horizAlign="1"/><v:tabList/>Record <tspan
						x="5.21" dy="1.2em" class="st8">Incoming Files</tspan></text>		</g>
		<g id="shape18-73" v:mID="18" v:groupContext="shape" v:layerMember="1" transform="translate(153.793,-124.403)">
			<title>Dynamic connector.18</title>
			<path d="M7.09 494.31 L7.09 549.63" class="st17"/>
		</g>
		<g id="shape19-79" v:mID="19" v:groupContext="shape" v:layerMember="0" transform="translate(16.3129,-124.403)">
			<title>Data process.19</title>
			<desc>Write Files To Disk / Display Stats</desc>
			<v:custProps>
				<v:cp v:nameU="Cost" v:lbl="Cost" v:type="7" v:format="@" v:langID="1033"/>
				<v:cp v:nameU="Duration" v:lbl="Duration" v:type="2" v:langID="1033"/>
				<v:cp v:nameU="Resources" v:lbl="Resources" v:langID="1033"/>
			</v:custProps>
			<v:userDefs>
				<v:ud v:nameU="visVersion" v:val="VT0(15):26"/>
			</v:userDefs>
			<v:textBlock v:margins="rect(1,1,1,1)" v:tabSpace="42.5197"/>
			<v:textRect cx="28.3465" cy="465.963" width="56.7" height="56.6929"/>
			<g id="shadow19-80" v:groupContext="shadow" v:shadowOffsetX="0.345598" v:shadowOffsetY="-1.97279" v:shadowType="1"
					transform="matrix(1,0,0,1,0.345598,1.97279)" class="st1">
				<path d="M0 465.96 A28.3465 28.3465 0 0 1 56.69 465.96 A28.3465 28.3465 0 1 1 0 465.96 Z" class="st9"/>
			</g>
			<path d="M0 465.96 A28.3465 28.3465 0 0 1 56.69 465.96 A28.3465 28.3465 0 1 1 0 465.96 Z" class="st10"/>
			<text x="6.05" y="458.76" class="st5" v:langID="4105"><v:paragraph v:horizAlign="1"/><v:tabList/>Write Files To <tspan
						x="6.54" dy="1.2em" class="st8">Disk </tspan>/ Display <tspan x="20.35" dy="1.2em" class="st8">Stats</tspan></text>		</g>
		<g id="shape20-87" v:mID="20" v:groupContext="shape" v:layerMember="1" transform="translate(132.533,-33.6943)">
			<title>Dynamic connector.20</title>
			<desc>Timeout / Expected Files Received</desc>
			<v:textBlock v:margins="rect(4,4,4,4)" v:tabSpace="42.5197"/>
			<v:textRect cx="-72.0736" cy="476.582" width="120.92" height="17.6036"/>
			<path d="M0 494.31 C-21.97 494.31 -54.77 494.31 -71.25 477.45 C-86.23 462.13 -87.71 432.87 -87.86 410.64 L-87.86 410.28"
					class="st18"/>
			<rect v:rectContext="textBkgnd" x="-127.627" y="471.782" width="111.107" height="9.59985" class="st19"/>
			<text x="-127.63" y="478.98" class="st14" v:langID="4105"><v:paragraph v:horizAlign="1"/><v:tabList/>Timeout / Expected Files Received</text>		</g>
		<g id="shape21-94" v:mID="21" v:groupContext="shape" v:layerMember="1" transform="translate(37.5728,-181.096)">
			<title>Dynamic connector.21</title>
			<path d="M7.09 494.31 L7.09 433.32" class="st17"/>
		</g>
		<g id="shape22-99" v:mID="22" v:groupContext="shape" v:layerMember="0" transform="translate(16.3129,-249.127)">
			<title>State.22</title>
			<desc>Close Thread</desc>
			<v:custProps>
				<v:cp v:nameU="Cost" v:lbl="Cost" v:type="7" v:format="@" v:langID="1033"/>
				<v:cp v:nameU="Duration" v:lbl="Duration" v:type="2" v:langID="1033"/>
				<v:cp v:nameU="Resources" v:lbl="Resources" v:langID="1033"/>
			</v:custProps>
			<v:userDefs>
				<v:ud v:nameU="visVersion" v:val="VT0(15):26"/>
			</v:userDefs>
			<v:textBlock v:margins="rect(1,1,1,1)" v:tabSpace="42.5197"/>
			<v:textRect cx="28.3465" cy="465.963" width="56.7" height="56.6929"/>
			<g id="shadow22-100" v:groupContext="shadow" v:shadowOffsetX="0.345598" v:shadowOffsetY="-1.97279" v:shadowType="1"
					transform="matrix(1,0,0,1,0.345598,1.97279)" class="st1">
				<path d="M0 465.96 A28.3465 28.3465 0 0 1 56.69 465.96 A28.3465 28.3465 0 1 1 0 465.96 Z" class="st9"/>
			</g>
			<path d="M0 465.96 A28.3465 28.3465 0 0 1 56.69 465.96 A28.3465 28.3465 0 1 1 0 465.96 Z" class="st10"/>
			<text x="7.27" y="468.36" class="st5" v:langID="4105"><v:paragraph v:horizAlign="1"/><v:tabList/>Close Thread</text>		</g>
		<g id="shape16-105" v:mID="16" v:groupContext="shape" v:layerMember="2" transform="translate(268.596,-399.364)">
			<title>Filled</title>
			<desc>This may look a little awkward, but it’s to avoid a race cond...</desc>
			<v:userDefs>
				<v:ud v:nameU="visVersion" v:prompt="" v:val="VT0(15):26"/>
				<v:ud v:nameU="msvStructureType" v:prompt="" v:val="VT4(Callout)"/>
				<v:ud v:nameU="msvSDTargetIntersection" v:prompt=""/>
				<v:ud v:nameU="msvSDCalloutNoHighlight" v:prompt="" v:val="VT0(0):5"/>
				<v:ud v:nameU="msvShapeCategories" v:prompt="" v:val="VT0(0):26"/>
				<v:ud v:nameU="Side" v:prompt="" v:val="VT0(4):26"/>
				<v:ud v:nameU="LeaderEnd" v:prompt="" v:val="VT7(PNT(6.25MM,-6.4MM)):40"/>
				<v:ud v:nameU="WHBoxIntersection" v:prompt="" v:val="VT7(PNT(10.096153846154MM,0MM)):40"/>
				<v:ud v:nameU="Embellishment" v:prompt="" v:val="VT0(2):26"/>
				<v:ud v:nameU="BackFillColor" v:prompt="" v:val="VT5(#96afcf)"/>
				<v:ud v:nameU="BackLineColor" v:prompt="" v:val="VT5(#1f477d)"/>
				<v:ud v:nameU="DarkerColor" v:prompt="" v:val="VT5(#1f477d)"/>
				<v:ud v:nameU="msvSDTargetIntersection" v:prompt="" v:val="VT7(PNT(-1.0766549069093,-0.31340771318347)):40"/>
				<v:ud v:nameU="Side" v:prompt="" v:val="VT0(3):26"/>
				<v:ud v:nameU="LeaderEnd" v:prompt="" v:val="VT7(PNT(-1.0766549069093,-0.31340771318347)):40"/>
				<v:ud v:nameU="WHBoxIntersection" v:prompt="" v:val="VT7(PNT(0MM,0)):40"/>
				<v:ud v:nameU="BackFillColor" v:prompt="" v:val="VT5(#4f88bb)"/>
				<v:ud v:nameU="BackLineColor" v:prompt="" v:val="VT5(#41719c)"/>
				<v:ud v:nameU="DarkerColor" v:prompt="" v:val="VT5(#41719c)"/>
			</v:userDefs>
			<v:textBlock v:margins="rect(4,4,4,4)" v:tabSpace="42.5197"/>
			<v:textRect cx="35.4331" cy="447.537" width="70.87" height="92.0039"/>
			<g id="shadow16-106" v:groupContext="shadow" v:shadowOffsetX="0.345598" v:shadowOffsetY="-1.97279" v:shadowType="1"
					transform="matrix(1,0,0,1,0.345598,1.97279)" class="st1">
				<path d="M0 494.31 L70.87 494.31 L70.87 400.77 L0 400.77 L0 494.31 Z" class="st20"/>
				<path d="M0 494.31 L-77.52 516.87" class="st21"/>
				<path d="M0 494.31 L70.87 494.31 L70.87 400.77 L0 400.77 L0 494.31" class="st21"/>
			</g>
			<path d="M0 494.31 L70.87 494.31 L70.87 400.77 L0 400.77 L0 494.31 Z" class="st22"/>
			<path d="M0 494.31 L-77.52 516.87" class="st23"/>
			<path d="M0 494.31 L70.87 494.31 L70.87 400.77 L0 400.77 L0 494.31" class="st23"/>
			<text x="4" y="414.54" class="st24" v:langID="4105"><v:paragraph/><v:tabList/>This may look a <tspan x="4" dy="1.2em"
						class="st8">little awkward</tspan>, <tspan x="4" dy="1.2em" class="st8">but it</tspan>’s to <tspan x="4"
						dy="1.2em" class="st8">avoid a race </tspan><tspan x="4" dy="1.2em" class="st8">condition with </tspan><tspan
						x="4" dy="1.2em" class="st8">multiple </tspan><tspan x="4" dy="1.2em" class="st8">connections</tspan></text>		</g>
	</g>
</svg>
